HIERARCHY
ROOT Hips
{
	OFFSET -285.066589 92.472481 297.089996
	CHANNELS 6 Xposition Yposition Zposition Zrotation Yrotation Xrotation 
	JOINT LeftUpLeg
	{
		OFFSET 0.103457 1.857824 10.548504
		CHANNELS 3 Xrotation Yrotation Zrotation
		JOINT LeftLeg
		{
			OFFSET 43.500000 -0.000038 -0.000017
			CHANNELS 3 Xrotation Yrotation Zrotation
			JOINT LeftFoot
			{
				OFFSET 42.372200 0.000011 0.000019
				CHANNELS 3 Xrotation Yrotation Zrotation
				JOINT LeftToe
				{
					OFFSET 17.300011 0.000002 -0.000008
					CHANNELS 3 Xrotation Yrotation Zrotation
					End Site
					{
						OFFSET 0.000000 0.000000 0.000000
					}
				}
			}
		}
	}
	JOINT RightUpLeg
	{
		OFFSET 0.103457 1.857822 -10.548492
		CHANNELS 3 Xrotation Yrotation Zrotation
		JOINT RightLeg
		{
			OFFSET 43.500038 -0.000027 0.000036
			CHANNELS 3 Xrotation Yrotation Zrotation
			JOINT RightFoot
			{
				OFFSET 42.372261 0.000015 0.000010
				CHANNELS 3 Xrotation Yrotation Zrotation
				JOINT RightToe
				{
					OFFSET 17.299988 -0.000006 0.000008
					CHANNELS 3 Xrotation Yrotation Zrotation
					End Site
					{
						OFFSET 0.000000 0.000000 0.000000
					}
				}
			}
		}
	}
	JOINT Spine
	{
		OFFSET 6.901965 -2.603737 0.000006
		CHANNELS 3 Xrotation Yrotation Zrotation
		JOINT Spine1
		{
			OFFSET 12.588104 -0.000005 0.000007
			CHANNELS 3 Xrotation Yrotation Zrotation
			JOINT Spine2
			{
				OFFSET 12.343202 0.000026 -0.000008
				CHANNELS 3 Xrotation Yrotation Zrotation
				JOINT Neck
				{
					OFFSET 25.832890 -0.000029 -0.000007
					CHANNELS 3 Xrotation Yrotation Zrotation
					JOINT Head
					{
						OFFSET 11.766619 0.000021 0.000012
						CHANNELS 3 Xrotation Yrotation Zrotation
						End Site
						{
							OFFSET 0.000000 0.000000 0.000000
						}
					}
				}
				JOINT LeftShoulder
				{
					OFFSET 19.745909 -1.480377 6.000106
					CHANNELS 3 Xrotation Yrotation Zrotation
					JOINT LeftArm
					{
						OFFSET 11.284110 -0.000009 -0.000020
						CHANNELS 3 Xrotation Yrotation Zrotation
						JOINT LeftForeArm
						{
							OFFSET 33.000053 0.000014 0.000021
							CHANNELS 3 Xrotation Yrotation Zrotation
							JOINT LeftHand
							{
								OFFSET 25.200008 0.000006 -0.000004
								CHANNELS 3 Xrotation Yrotation Zrotation
								End Site
								{
									OFFSET 0.000000 0.000000 0.000000
								}
							}
						}
					}
				}
				JOINT RightShoulder
				{
					OFFSET 19.746101 -1.480381 -6.000081
					CHANNELS 3 Xrotation Yrotation Zrotation
					JOINT RightArm
					{
						OFFSET 11.284131 -0.000022 0.000003
						CHANNELS 3 Xrotation Yrotation Zrotation
						JOINT RightForeArm
						{
							OFFSET 33.000095 0.000014 0.000005
							CHANNELS 3 Xrotation Yrotation Zrotation
							JOINT RightHand
							{
								OFFSET 25.199774 0.000153 0.000423
								CHANNELS 3 Xrotation Yrotation Zrotation
								End Site
								{
									OFFSET 0.000000 0.000000 0.000000
								}
							}
						}
					}
				}
			}
		}
	}
}
MOTION
Frames: 10
Frame Time: 0.033333
-165.100296 90.852242 -603.964478 95.403358 1.590468 156.718021 -174.311127 1.380403 -179.818513 -18.908633 -3.012691 -1.895809 91.494632 1.574247 1.485264 21.454562 0.003113 0.000018 161.515450 3.729999 -177.416349 -23.805665 2.767501 0.691627 76.008169 -0.581228 -0.006108 21.454555 -0.003097 -0.000001 9.415831 -0.542857 -0.231176 8.821539 -1.066455 -0.503043 8.503402 -1.069608 -0.496602 14.767216 -5.235099 -3.903171 -18.778429 9.417110 -7.883584 170.951889 -73.044884 7.906006 -10.194472 47.760538 31.380918 -48.135365 -22.064586 2.191443 0.285408 -17.430798 10.978103 -157.460927 80.720699 24.417986 -4.349668 -61.095284 -41.853422 -37.468649 18.616393 -1.628268 11.970958 15.441518 -0.470602 
-162.428894 90.638496 -603.002014 95.154002 1.956411 156.662956 -172.603634 1.272401 -179.786316 -19.079700 -2.644845 -1.995054 92.449267 1.592094 1.271449 21.454557 0.003108 0.000017 162.585331 3.067305 -178.753017 -15.396293 3.088998 1.385881 73.676588 -0.802837 0.931175 21.454553 -0.003093 -0.000001 9.347580 -0.354386 -0.241639 8.683989 -0.689592 -0.509169 8.365888 -0.692792 -0.504998 14.221873 -5.481155 -3.786224 -17.855904 9.133817 -7.593554 170.907985 -72.828183 7.957995 -11.467907 48.281204 30.782744 -47.612450 -21.800953 2.156769 0.198637 -17.912916 11.568463 -156.275835 81.423389 25.605997 -3.889692 -61.703874 -43.165433 -35.650200 18.145620 -1.553549 12.529195 15.960407 1.769735 
-159.631393 90.359650 -601.892517 95.189464 2.650917 156.557006 -170.857947 1.062195 -179.781453 -20.174675 -2.038032 -2.157347 93.379587 1.626066 0.838159 21.454555 0.003105 0.000017 163.521573 1.902890 179.735567 -11.288254 2.819421 1.265861 74.523484 -0.091960 3.069181 21.454557 -0.003094 0.000000 9.337319 -0.122271 -0.223072 8.662276 -0.227465 -0.454657 8.344189 -0.230343 -0.453282 13.754198 -5.740874 -3.531818 -17.178776 8.845306 -7.185084 170.948966 -72.702166 7.919927 -12.602467 49.270133 30.582452 -46.551991 -21.975049 2.134573 0.240467 -18.354726 11.412938 -155.597938 82.088424 26.279033 -3.969572 -62.018712 -44.410512 -33.646448 17.477235 -1.464501 13.172975 16.093913 3.435437 
-156.860794 90.148323 -600.679077 95.321983 3.513978 156.583002 -169.378077 0.615402 -179.607228 -22.013517 -1.590650 -2.469880 93.725577 1.772709 0.380804 21.454562 0.003111 0.000017 164.054191 0.691605 178.840198 -11.960021 2.961695 0.734110 73.706907 0.700609 4.352055 21.454553 -0.003096 -0.000001 9.340836 0.126651 -0.205342 8.668382 0.268366 -0.400619 8.350280 0.265806 -0.402239 13.527427 -5.819282 -3.282844 -16.974261 8.434827 -6.767945 170.689938 -72.689571 8.186051 -13.237854 50.442197 30.281630 -45.765262 -22.057346 2.115379 0.388633 -18.417195 11.329909 -154.649881 82.134036 27.238043 -4.937875 -61.846482 -44.918138 -31.590007 16.711004 -1.371217 13.173860 16.555851 4.374395 
-154.069504 90.103539 -599.375427 95.458410 4.182725 157.125005 -168.781570 0.037400 179.645668 -25.209482 -0.902350 -2.025448 92.918139 1.389573 -0.205352 21.454557 0.003110 0.000017 164.665274 -0.324404 178.637150 -14.863458 2.794736 -1.326581 72.051508 1.729250 2.741388 21.454551 -0.003090 0.000000 9.291309 0.353842 -0.323097 8.567981 0.730644 -0.619138 8.249873 0.726754 -0.623540 13.551481 -6.118743 -3.026529 -16.748556 8.334432 -6.452813 171.056883 -72.593744 7.812988 -13.165600 51.445934 30.237739 -45.469102 -21.940866 2.098401 0.619407 -18.215766 11.338430 -153.780056 81.858035 28.124988 -6.740387 -61.594796 -44.836992 -29.363055 15.923768 -1.276675 13.090002 18.142524 4.849178 
-151.204193 90.164383 -597.958374 95.563554 5.083929 157.802983 -168.721314 -1.021300 178.178885 -29.520088 0.004423 -1.095241 91.217129 0.635798 -0.893347 21.454560 0.003108 0.000017 165.811817 -1.564108 177.580615 -17.146696 2.819242 -0.931095 71.701495 0.895574 1.007102 21.454550 -0.003096 -0.000000 9.216832 0.629195 -0.417628 8.416907 1.287105 -0.788474 8.098789 1.282175 -0.796231 13.703535 -6.523294 -2.889148 -16.237100 8.368666 -6.284256 171.122043 -72.503606 7.749045 -12.596282 52.337195 30.932578 -45.213370 -21.953343 2.091334 0.957787 -17.943081 11.156103 -151.644038 81.349056 30.301998 -8.468218 -61.509945 -43.760889 -27.591282 15.271094 -1.202550 13.036469 19.279346 4.897188 
-148.359207 90.051086 -596.466614 95.738092 6.134197 158.770029 -170.326845 -2.711701 177.176992 -36.701035 0.709225 -0.001088 88.180447 -0.440486 -2.510307 21.454553 0.003106 0.000017 166.776404 -2.821794 176.437802 -20.265742 3.219499 0.153651 73.464183 -0.399021 -0.626160 21.454555 -0.003092 -0.000000 9.151658 0.918662 -0.483439 8.284213 1.869552 -0.900045 7.965997 1.863943 -0.911325 14.124835 -6.373460 -2.920877 -15.473671 7.970612 -6.084196 171.049083 -72.438343 7.825917 -12.085179 52.972150 31.997777 -44.617326 -22.004568 2.076478 1.111517 -17.581428 11.507294 -150.397938 80.129799 31.599143 -10.160868 -60.899025 -42.625032 -26.256405 14.864252 -1.153747 13.708428 19.781601 6.765106 
-145.516296 90.045151 -595.018982 95.907351 7.074914 159.697992 -173.706737 -4.451406 176.017977 -46.161075 1.905112 1.125902 82.048447 -1.970933 -4.979902 21.454568 0.003110 0.000018 168.322390 -3.658497 176.362342 -22.361377 3.794134 0.636952 76.212480 -0.924298 -1.326680 21.454551 -0.003093 -0.000000 9.069213 1.189792 -0.509598 8.117536 2.412365 -0.934770 7.799185 2.406538 -0.949331 14.638825 -6.186556 -2.978592 -14.403266 7.239005 -5.775913 171.678977 -72.411705 7.179920 -11.759926 53.608041 33.030566 -43.713474 -22.077009 2.054057 1.128976 -17.230447 12.220753 -150.535880 78.957622 31.492923 -11.485731 -60.132753 -41.542519 -25.511957 14.831039 -1.139477 14.771893 18.638160 8.644649 
-142.692001 90.132072 -593.669922 96.078222 7.653429 160.493039 -178.035533 -6.169906 176.152450 -56.197915 2.351314 1.884142 75.736095 -3.964132 -8.846546 21.454557 0.003108 0.000018 170.236291 -3.966296 177.685705 -23.553147 4.062087 0.250794 78.660645 -0.756300 -1.839839 21.454553 -0.003093 -0.000000 8.997288 1.396902 -0.479385 7.973493 2.823476 -0.861751 7.655025 2.818081 -0.878800 14.895179 -6.130257 -2.969870 -13.188962 6.810092 -5.521401 171.798109 -72.684045 7.049060 -11.492877 54.686313 32.993092 -42.976308 -22.052779 2.030585 1.181032 -16.587287 12.597936 -150.241950 78.557516 31.802990 -12.635175 -59.802807 -40.006177 -25.592927 14.822562 -1.140242 15.254418 17.012043 9.947475 
-139.898193 90.356644 -592.382385 96.372050 8.018928 161.094000 177.257479 -7.881100 175.555915 -65.253237 2.979839 1.946841 69.960467 -5.418339 -11.336897 21.454553 0.003108 0.000017 172.787066 -4.115598 178.738087 -23.477920 4.204330 -0.167231 80.447566 -0.493983 -2.078697 21.454550 -0.003096 -0.000001 8.980739 1.532101 -0.402104 7.942074 3.088158 -0.698461 7.623478 3.083746 -0.717125 15.323345 -6.024681 -2.801073 -12.570904 6.546715 -5.192337 172.155041 -72.638673 6.684071 -11.253882 55.116208 32.843460 -42.532633 -21.821403 2.002320 1.299989 -16.169008 12.199900 -151.002942 78.527709 31.030991 -13.682402 -59.295352 -38.982779 -26.597826 14.897076 -1.161545 15.105575 15.408270 10.287256 
